{"title":"Tusk.2014.BRRip.480p.x264.AAC-VYTO [P2PDL]","uid":11674733,"size":373527166,"categoryP":"video","categoryS":"movies","magnet":"?xt=urn:btih:7c633a728465714a3999e519e5084a3b0d08501a&amp;dn=Tusk.2014.BRRip.480p.x264.AAC-VYTO+%5BP2PDL%5D&amp;tr=udp%3A%2F%2Ftracker.openbittorrent.com%3A80&amp;tr=udp%3A%2F%2Fopen.demonii.com%3A1337&amp;tr=udp%3A%2F%2Ftracker.coppersurfer.tk%3A6969&amp;tr=udp%3A%2F%2Fexodus.desync.com%3A6969","seeders":2,"leechers":1,"uploader":"ValidusVyto","files":6,"time":1422809808,"description":"Tusk.2014.BRRip.480p.x264.AAC-VYTO\n\n\nGenre: Comedy | Drama | Horror\nIMDb: http://www.imdb.com/title/tt3099498/\n\nFormat                      : MPEG-4\nFile size                   : 351 MiB\nDuration                    : 1h 44mn\nOverall bit rate            : 468 Kbps\n\nVideo\nFormat                      : AVC\nBit rate                    : 426 Kbps\nWidth                       : 720 pixels\nHeight                      : 304 pixels\nDisplay aspect ratio        : 2.35:1\nFrame rate mode             : Constant\nFrame rate                  : 23.976 fps\nBit depth                   : 8 bit\nStream size                 : 319 MiB (91%)\nWriting library             : x264 core 142 r2491 24e4fed\n\nAudio\nFormat                      : AAC\nBit rate mode               : Variable\nBit rate                    : 38.9 Kbps\nChannel(s)                  : 2 channels\nChannel positions           : Front: L R\nSampling rate               : 48.0 KHz\nStream size                 : 29.2 MiB (8%)\nLanguage                    : English\n\nSubtitle                    : Yes(English)\n &lt;a href=&quot;\nhttp://someimage.com/kOUgkfL&quot; rel=&quot;nofollow&quot; target=&quot;_NEW&quot;&gt;\nhttp://someimage.com/kOUgkfL&lt;/a&gt; &lt;a href=&quot;\nhttp://someimage.com/mK0VP46&quot; rel=&quot;nofollow&quot; target=&quot;_NEW&quot;&gt;\nhttp://someimage.com/mK0VP46&lt;/a&gt; &lt;a href=&quot;\nhttp://someimage.com/rJIP9Xz&quot; rel=&quot;nofollow&quot; target=&quot;_NEW&quot;&gt;\nhttp://someimage.com/rJIP9Xz&lt;/a&gt; &lt;a href=&quot;\nhttp://someimage.com/sy6HOnx&quot; rel=&quot;nofollow&quot; target=&quot;_NEW&quot;&gt;\nhttp://someimage.com/sy6HOnx&lt;/a&gt; &lt;a href=&quot;\nhttp://someimage.com/QM4Zraw&quot; rel=&quot;nofollow&quot; target=&quot;_NEW&quot;&gt;\nhttp://someimage.com/QM4Zraw&lt;/a&gt; &lt;a href=&quot;\nhttp://someimage.com/0gCVgtI&quot; rel=&quot;nofollow&quot; target=&quot;_NEW&quot;&gt;\nhttp://someimage.com/0gCVgtI&lt;/a&gt; &lt;a href=&quot;\nhttp://someimage.com/LA3OvyZ&quot; rel=&quot;nofollow&quot; target=&quot;_NEW&quot;&gt;\nhttp://someimage.com/LA3OvyZ&lt;/a&gt; &lt;a href=&quot;\nhttp://someimage.com/W8vRgIy&quot; rel=&quot;nofollow&quot; target=&quot;_NEW&quot;&gt;\nhttp://someimage.com/W8vRgIy&lt;/a&gt; &lt;a href=&quot;\nhttp://someimage.com/yt0Ll6s&quot; rel=&quot;nofollow&quot; target=&quot;_NEW&quot;&gt;\nhttp://someimage.com/yt0Ll6s&lt;/a&gt; &lt;a href=&quot;\nhttp://someimage.com/KVoczdg&quot; rel=&quot;nofollow&quot; target=&quot;_NEW&quot;&gt;\nhttp://someimage.com/KVoczdg&lt;/a&gt; &lt;a href=&quot;\nhttp://someimage.com/wFUsFgW&quot; rel=&quot;nofollow&quot; target=&quot;_NEW&quot;&gt;\nhttp://someimage.com/wFUsFgW&lt;/a&gt; &lt;a href=&quot;\nhttp://someimage.com/jn2Sbbi&quot; rel=&quot;nofollow&quot; target=&quot;_NEW&quot;&gt;\nhttp://someimage.com/jn2Sbbi&lt;/a&gt;\n\n----------------------------------------------------------------------------------------------------\n\n\nEncoder Notes: Looking For Early Access To Anything You Can Provide DVDScr, R5, DVDR, BluRay, Direct\nAudio, Music Releases and Seedboxes. If You Got anything to offer please contact us.\n\nWe require dedicated servers, so as to do more and fast releases of movies.\nSupport us by donating LC - LezHMTo2cYaiztCCcWxB4cNFVNVpWW3GSx","torrent":{"xt":"urn:btih:7c633a728465714a3999e519e5084a3b0d08501a","amp;dn":"Tusk.2014.BRRip.480p.x264.AAC-VYTO+%5BP2PDL%5D","amp;tr":["udp%3A%2F%2Ftracker.openbittorrent.com%3A80","udp%3A%2F%2Fopen.demonii.com%3A1337","udp%3A%2F%2Ftracker.coppersurfer.tk%3A6969","udp%3A%2F%2Fexodus.desync.com%3A6969"],"infoHash":"7c633a728465714a3999e519e5084a3b0d08501a","infoHashBuffer":{"type":"Buffer","data":[124,99,58,114,132,101,113,74,57,153,229,25,229,8,74,59,13,8,80,26]},"announce":[],"urlList":[]}}